<svg width="216" height="25" viewBox="0 0 216 25" fill="none" xmlns="http://www.w3.org/2000/svg">
<path d="M9.375 24.225L10.075 22.575C5.7 21.25 3.8 20.275 3.8 18.95C3.8 17.5 6 16.45 6 14.875C6 13.9 5.225 12.9 3.125 12.375C5.25 11.8 6.05 10.775 6.05 9.85C6.05 8.45 3.65 7.225 3.65 5.925C3.65 4.8 5.6 3.8 10.125 2.525L9.475 0.85C3.725 2.675 1.7 4.4 1.7 6.125C1.725 8 4.225 9.075 4.225 10.2C4.225 10.95 3.325 11.525 0.2 11.8L0.15 13.275C2.875 13.45 4.075 14.225 4.075 15.175C4.075 16.35 1.775 17.425 1.775 19.4C1.775 21.25 3.725 22.4 9.375 24.225ZM173.291 0.874999C167.891 5.3 165.716 8.975 165.716 12.6C165.716 16.15 167.841 19.75 173.191 24.15L174.591 22.875C169.566 18.9 167.716 15.7 167.716 12.525C167.716 9.35 169.541 6.15 174.666 2.15L173.291 0.874999ZM180.087 24.15C185.512 19.7 187.662 16.025 187.662 12.4C187.662 8.875 185.537 5.275 180.187 0.85L178.812 2.175C183.812 6.125 185.662 9.325 185.662 12.475C185.662 15.675 183.837 18.85 178.712 22.875L180.087 24.15ZM206.502 24.2C212.252 22.375 214.252 20.625 214.252 18.925C214.252 17.025 211.727 15.95 211.727 14.825C211.727 14.1 212.652 13.5 215.752 13.225L215.827 11.775C213.077 11.6 211.877 10.825 211.877 9.875C211.877 8.7 214.202 7.6 214.202 5.65C214.202 3.8 212.252 2.65 206.602 0.824999L205.902 2.475C210.277 3.8 212.177 4.75 212.177 6.1C212.177 7.55 209.952 8.6 209.952 10.175C209.952 11.15 210.752 12.15 212.827 12.65C210.727 13.25 209.927 14.275 209.927 15.175C209.927 16.6 212.302 17.825 212.302 19.1C212.302 20.225 210.352 21.25 205.852 22.5L206.502 24.2Z" fill="#D6DEEB"/>
<path d="M36.4152 6.65C30.1652 6.175 28.0652 8.175 28.0652 10.125C28.0652 13.2 34.9152 13.55 34.9152 15.725C34.9152 16.825 33.3902 17.725 28.0402 17.3L27.9652 19.1C34.8402 19.475 37.0152 17.55 37.0152 15.55C37.0152 12.425 30.1152 11.875 30.1152 9.85C30.1152 8.85 31.4652 8 36.4902 8.45L36.4152 6.65ZM46.5104 8.2C48.0604 8.2 48.9854 9.025 48.9854 11.375V19H51.0104V10.7C51.0104 7.7 49.5604 6.475 47.3604 6.475C45.7354 6.475 44.4604 7.15 43.4604 7.95V1.35L41.4354 1.525V19H43.4604V9.2C44.3854 8.6 45.3604 8.2 46.5104 8.2ZM59.1805 17.7C57.6555 17.7 56.6555 16.95 56.6555 15.65C56.6555 13.975 58.1305 13 62.6055 13.475C62.6055 14.675 62.6305 15.575 62.6555 16.375C61.7055 17.125 60.4055 17.7 59.1805 17.7ZM62.9305 19.075L64.7805 18.95C64.6805 17.2 64.5805 15.475 64.5805 12.925C64.5805 8.2 62.6805 6.725 55.6055 6.525L55.3805 8.275C60.8555 8.475 62.4055 9.2 62.5805 12.025C57.1555 11.7 54.6555 13.6 54.6555 16.125C54.6555 18.1 56.1805 19.3 58.4055 19.3C60.3305 19.3 61.7555 18.425 62.7555 17.5C62.8055 18.05 62.9055 18.825 62.9305 19.075ZM71.7756 8.2C72.6006 8.2 72.9256 8.675 72.9256 9.925V19H74.5006V9.15C74.5006 9.075 74.5006 9 74.5006 8.925C75.0256 8.45 75.5756 8.2 76.1256 8.2C76.9756 8.2 77.3006 8.675 77.3006 9.95V19H79.2256V9.225C79.2256 7.375 78.4506 6.475 77.0756 6.475C76.0006 6.475 75.0756 7.075 74.4006 7.775C74.1006 6.95 73.4506 6.475 72.5256 6.475C71.5006 6.475 70.5756 7.075 69.8756 7.85L69.7756 6.7L68.0006 6.825C68.1006 9.65 68.1506 13.65 68.1506 19H70.0506C70.0506 14.7 70.0006 11.35 69.9506 9.125C70.5506 8.525 71.2256 8.2 71.7756 8.2ZM91.8707 19.275L92.0707 17.55C86.1457 17.4 84.3207 16.3 84.1207 13.4L92.4957 13.2C92.9457 9.15 91.2457 6.45 87.8957 6.45C84.7207 6.45 82.1207 9.325 82.1207 13.05C82.1207 17.025 84.1957 19.25 91.8707 19.275ZM87.5457 8.125C89.5957 8.125 90.5707 9.6 90.5957 11.95C88.8707 12 85.5207 12.1 84.1207 12.15C84.2707 9.525 85.5207 8.125 87.5457 8.125Z" fill="#C792EA"/>
<path d="M102.666 10.775L102.716 7.85H99.7408L99.7158 10.775H102.666ZM102.466 19L102.566 16.1H99.5908L99.4908 19H102.466Z" fill="#D9F5DD"/>
<path d="M128.481 17.625C126.506 17.625 125.106 16.1 125.106 12.975C125.106 9.875 126.856 8.2 129.106 8.2C129.756 8.2 130.431 8.325 131.131 8.55C131.131 11.975 131.156 14.45 131.206 16.575C130.456 17.175 129.506 17.625 128.481 17.625ZM131.431 19.05L133.331 18.95C133.206 16.175 133.156 12.3 133.156 6.8V1.35L131.131 1.525V6.55C130.781 6.5 130.406 6.475 130.031 6.475C126.306 6.475 123.106 9.025 123.106 13.5C123.106 17.125 125.056 19.3 127.706 19.3C129.206 19.3 130.431 18.6 131.306 17.775L131.431 19.05ZM146.851 19.275L147.051 17.55C141.126 17.4 139.301 16.3 139.101 13.4L147.476 13.2C147.926 9.15 146.226 6.45 142.876 6.45C139.701 6.45 137.101 9.325 137.101 13.05C137.101 17.025 139.176 19.25 146.851 19.275ZM142.526 8.125C144.576 8.125 145.551 9.6 145.576 11.95C143.851 12 140.501 12.1 139.101 12.15C139.251 9.525 140.501 8.125 142.526 8.125ZM156.221 17.1H156.021C154.671 13.625 153.446 10.125 152.321 6.7L150.296 6.825C151.646 10.9 153.146 15 154.796 19.1H157.346C158.996 15.025 160.571 10.85 161.921 6.75H159.871C158.771 10.175 157.571 13.65 156.221 17.1Z" fill="#82AAFF"/>
</svg>
