<?xml version="1.0" encoding="UTF-8"?>
<svg width="1300px" height="1000px" viewBox="0 0 1300 1000" version="1.1" xmlns="http://www.w3.org/2000/svg" xmlns:xlink="http://www.w3.org/1999/xlink">
    <!-- Generator: Sketch 50.2 (55047) - http://www.bohemiancoding.com/sketch -->
    <title>Artboard</title>
    <desc>Created with Sketch.</desc>
    <defs></defs>
    <g id="Artboard" stroke="none" stroke-width="1" fill="none" fill-rule="evenodd">
        <g id="Background">
            <path d="M538.234985,968.056586 C772.871338,1037.07083 1044.93017,963.673976 1177.43416,858.97126 C1309.93814,754.268543 1320.40075,565.270289 1277.26467,380.391295 C1234.12858,195.5123 1175.62448,101.523337 934.666174,38.9801692 C693.707866,-23.5629991 442.136019,-23.5629991 217.467895,134.416645 C-7.20022982,292.39629 -48.5054196,508.921487 50.9879907,678.508984 C150.481401,848.09648 303.598633,899.042344 538.234985,968.056586 Z" id="Path-13" fill="#C792EA"></path>
            <path d="M936.654007,943.630035 C1209.87419,851.390696 1275.14616,753.278791 1283.02429,590.832504 C1290.90241,428.386217 1248.67131,208.664426 1106.24401,116.718426 C963.816707,24.7724254 906.839498,-12.329695 643.330388,18.8008855 C379.821278,49.931466 250.406709,69.4699255 109.845108,279.998137 C-30.7164922,490.526348 72.0377397,712.386825 200.67144,834.520531 C329.305141,956.654237 663.433826,1035.86937 936.654007,943.630035 Z" id="Path-13" fill="#FFCB8B" style="mix-blend-mode: soft-light;"></path>
            <path d="M581.073171,30.1144105 C373.874063,45.883824 272.704502,128.381787 184.201599,214.085788 C95.6986968,299.78979 -70.3030773,557.9807 156.530374,776.482185 C383.363825,994.983669 642.54432,1032.24428 855.60099,977.020651 C1068.65766,921.797024 1262.82713,814.104166 1269.71808,646.970218 C1276.60902,479.836269 1254.03287,211.227454 1105.67029,102.012505 C957.307707,-7.20244426 788.272279,14.3449969 581.073171,30.1144105 Z" id="Path-12" fill="#7FDBCA" style="mix-blend-mode: soft-light;"></path>
        </g>
        <g id="Box" transform="translate(375.000000, 148.000000)">
            <path d="M278.348807,6.18170054 C274.082256,6.18170054 274.017994,11.5307135 262.33643,15.7277405 C250.654865,19.9247675 242.702097,24.5524104 227.621327,31.9016399 C212.540558,39.2508693 200.139885,45.5564562 164.380026,56.045281 C128.620167,66.5341057 106.412579,77.3061992 80.3200721,86.5567572 C54.2275652,95.8073151 18.8915227,108.954296 13.3992556,112.793199 C7.90698849,116.632102 11.330637,123.172498 11.330637,134.189251 C11.330637,145.206004 11.330637,216.317895 11.330637,231.445 C11.330637,246.572105 13.3992556,282.070646 13.3992556,311.325262 C13.3992556,340.579878 12.5642737,376.162595 14.5586864,381.980861 C16.5530991,387.799128 35.1134776,400.492862 36.1221461,401.997998 C37.1308146,403.503134 28.8301254,407.998285 13.3992556,424.591608 C-2.03161424,441.184931 -2.03161424,441.184931 4.12331221,455.70842 C10.2782387,470.231908 65.2251153,497.814273 88.1787854,524.712995 C111.132456,551.611717 162.672134,600.620962 197.270026,622.982934 C231.867918,645.344907 262.579255,698.563046 316.850808,698.563046 C371.122362,698.563046 452.75829,584.752493 487.130019,552.736042 C521.501747,520.719591 567.613409,481.155693 576.796906,455.70842 C585.980403,430.261147 556.264455,423.820063 555.221959,420.794652 C554.179462,417.76924 573.312884,402.106799 573.312884,397.14278 C573.312884,392.178761 573.312884,327.713133 573.312884,318.901506 C573.312884,310.08988 573.312884,278.923515 573.312884,271.38435 C573.312884,263.845185 575.73118,247.031175 574.522032,243.361206 C573.312884,239.691237 570.342787,243.330366 570.342787,207.033447 C570.342787,170.736527 569.368186,143.253085 565.873446,137.80426 C562.378706,132.355435 561.913934,127.117557 567.613409,122.596401 C573.312884,118.075246 570.710037,106.597803 559.204925,99.1067488 C547.699812,91.6156942 523.285044,67.8429297 504.784014,50.7994699 C486.282985,33.7560101 463.566825,15.5424777 461.047304,9.94315344 C458.527783,4.34382916 456.773624,-3.30142578 446.123988,2.20291106 C435.474352,7.7072479 420.201686,18.2755253 400.47696,28.4416481 C380.752235,38.6077709 378.506763,40.9799896 376.43288,40.9799896 C374.358997,40.9799896 374.826238,38.1803274 348.487307,28.4416481 C322.148377,18.7029687 282.615357,6.18170054 278.348807,6.18170054 Z" id="Outline" fill="#011627"></path>
            <path d="M337.214597,253.478346 C336.091628,246.886729 346.12404,243.638491 358.953656,236.615262 C371.783272,229.592032 412.190177,213.245027 424.712811,206.011095 C437.235445,198.777164 469.274886,176.78902 479.444766,171.074089 C489.614645,165.359158 495.936337,166.450721 514.019942,154.6157 C532.103547,142.780678 550.155107,131.07282 552.720566,131.07282 C555.286025,131.07282 557.479947,151.779583 559.388251,172.831172 C561.296555,193.882762 563.581968,212.821767 563.581968,238.148185 C563.581968,263.474602 564.614839,275.084071 563.581968,285.577843 C562.549097,296.071615 566.472986,310.62348 566.472986,330.753831 C566.472986,350.884181 564.324112,353.288221 564.324112,372.766047 C564.324112,392.243872 566.824552,390.663103 559.388251,399.184448 C551.95195,407.705794 541.595645,416.625097 524.868421,432.886149 C508.141198,449.147201 504.245522,451.926166 465.613577,484.388909 C426.981631,516.851652 407.293327,526.923896 392.943198,539.976252 C378.59307,553.028609 340.755339,587.147407 337.214597,588.870147 C333.673855,590.592888 335.380601,586.05213 335.380601,561.091888 C335.380601,536.131646 337.738928,500.233961 336.175224,490.617338 C334.61152,481.000716 332.987442,469.351343 334.581333,449.147201 C336.175224,428.943058 339.258512,398.472562 339.258512,346.055218 C339.258512,293.637873 332.423635,271.843259 335.380601,265.150933 C338.337566,258.458606 338.337566,260.069963 337.214597,253.478346 Z M24.8922294,138.129562 C26.1234758,136.285316 34.7057093,141.666111 43.8461259,144.128256 C52.9865425,146.590402 89.1805918,159.302934 120.585485,171.570444 C151.990377,183.837953 170.022528,189.950098 193.89668,201.634148 C217.770832,213.318197 256.326685,223.357215 278.375592,235.80773 C300.424498,248.258246 317.734255,252.730086 321.743577,256.742047 C325.752899,260.754007 325.596797,285.020256 325.596797,292.530273 C325.596797,300.04029 324.562199,307.467245 326.955088,332.000913 C329.347977,356.534581 325.48462,363.403738 326.955088,387.204029 C328.425556,411.004321 328.361358,443.585022 326.955088,448.082523 C325.548818,452.580025 325.165658,455.887647 326.955088,485.461758 C327.573044,495.67479 328.138536,551.116752 328.542745,559.611382 C329.309013,575.714846 329.49567,592.858454 328.361358,593.646266 C326.628693,594.849652 305.457607,579.425788 297.507215,572.719379 C289.556823,566.012969 260.558334,549.560623 248.462115,537.925195 C236.365897,526.289767 216.491606,513.816291 205.457692,502.933148 C194.423778,492.050004 174.247754,481.472973 161.083149,470.376435 C147.918543,459.279896 101.837697,432.386144 90.843653,422.107395 C79.8496091,411.828646 61.0865136,406.928955 49.1153115,397.028374 C37.1441094,387.127794 22.8446571,376.695511 22.8446571,374.726335 C22.8446571,372.757158 24.8922294,337.505963 25.9590357,298.019116 C27.0258419,258.532268 25.8283863,253.072463 25.8283863,235.80773 C25.8283863,218.542997 28.1257717,204.7304 27.1053644,192.059737 C26.0849571,179.389073 23.660983,139.973808 24.8922294,138.129562 Z" id="Box-Sides" fill="#D6DEEB"></path>
            <path d="M314.280863,241.765615 C318.695567,244.16419 295.101349,217.650985 291.859258,215.127718 C288.617168,212.604451 289.203509,216.415282 283.208361,208.99558 C277.213214,201.575878 278.643886,197.553611 264.296252,183.831725 C249.948617,170.10984 239.179908,159.067305 237.282659,159.067305 C235.38541,159.067305 215.278662,173.789521 210.979661,177.070267 C206.68066,180.351013 199.669521,178.164348 194.359021,175.270569 C189.04852,172.376791 178.10266,171.30166 169.758657,168.054823 C161.414653,164.807987 152.361052,157.564814 136.675064,152.368679 C120.989076,147.172544 91.9734414,140.704303 85.0925452,140.704303 C78.2116491,140.704303 80.9677002,141.551542 87.5806262,144.206957 C94.1935521,146.862371 107.085065,150.372505 124.894854,158.200119 C142.704644,166.027732 144.731137,167.717224 161.084306,173.635432 C177.437475,179.553641 188.907299,184.446585 202.519387,190.548802 C216.131475,196.651019 222.919555,200.432429 232.663291,203.448881 C242.407028,206.465332 253.024037,210.570378 267.410594,217.537288 C281.797152,224.504198 309.866158,239.367039 314.280863,241.765615 Z" id="Inside-Top" fill="#94A8C8"></path>
            <path d="M226.931306,148.037927 C227.518526,149.543201 219.682542,152.710011 211.263495,153.860785 C202.844448,155.011559 200.674394,159.730189 195.571979,159.730189 C190.469564,159.730189 190.415916,156.850138 180.170331,154.413522 C169.924745,151.976907 162.502975,150.872264 151.045104,145.361931 C139.587232,139.851598 122.680935,134.549477 106.428399,131.712231 C90.1758628,128.874985 85.6386271,124.971746 72.2402659,122.895449 C58.8419047,120.819152 48.3118583,115.84327 46.8479656,115.167518 C45.3840729,114.491765 56.8302999,108.032636 75.6933061,103.821859 C94.5563122,99.6110823 114.930621,89.245805 133.582777,80.9514221 C152.234933,72.6570392 161.961086,66.290587 184.011801,59.4183596 C206.062517,52.5461321 222.021443,46.9755384 238.140066,38.7929497 C254.258689,30.610361 274.590163,22.2066774 277.067552,24.6977352 C279.544941,27.188793 296.170936,26.2740752 307.843816,28.4629977 C319.516697,30.6519202 323.734122,37.683735 337.284279,41.9472921 C350.834436,46.2108493 365.64221,48.0315574 362.831286,48.9741198 C360.020363,49.9166822 347.058674,55.7727875 328.328749,66.290587 C309.598824,76.8083866 292.612262,84.9024542 276.419613,92.9736643 C260.226963,101.044874 226.073764,118.230846 219.0974,119.999605 C212.121037,121.768364 208.072042,129.341279 211.263495,137.589947 C214.454947,145.838615 226.344085,146.532653 226.931306,148.037927 Z M234.155745,134.134003 C232.643927,131.896688 247.904103,125.732297 268.343701,115.672624 C288.783299,105.61295 308.699123,93.5338051 326.530451,86.2013003 C344.361779,78.8687955 345.715699,74.6726528 361.164411,66.6012453 C376.613123,58.5298378 383.343249,52.2653565 404.252418,43.6169573 C425.161587,34.9685581 440.080632,21.5429031 448.145235,21.5429031 C456.209839,21.5429031 456.005396,28.9666668 468.225438,37.7239879 C480.44548,46.481309 496.75792,59.9935127 500.986416,66.6012453 C505.214913,73.2089779 519.521217,82.3931551 529.847068,93.2982983 C540.172918,104.203442 541.865024,112.660491 544.576988,115.672624 C547.288952,118.684756 548.222792,118.010029 541.338303,123.083435 C534.453813,128.15684 514.262846,144.359121 502.504127,151.101681 C490.745407,157.844241 481.850069,165.583584 474.358731,170.693493 C466.867394,175.803402 451.145895,180.431111 427.699156,190.628557 C404.252418,200.826002 378.48905,219.03009 367.189296,226.153583 C355.889543,233.277075 355.423507,230.688855 343.080916,236.198537 C330.738326,241.708219 331.128359,238.78558 325.479366,231.719198 C319.830373,224.652815 305.805104,209.828839 297.299799,201.987639 C288.794494,194.14644 264.527037,171.097976 254.081584,162.337122 C243.636132,153.576269 235.667564,136.371318 234.155745,134.134003 Z" id="Box-Top" fill="#CBD4E3"></path>
        </g>
        <g id="Code-Badge" transform="translate(731.000000, 373.000000)">
            <path d="M22.2040943,68.1889892 C2.75159901,98.2189495 2.75159901,151.472427 5.8705556,162.972483 C8.98951219,174.472539 27.6941052,204.463738 55.1793385,215.189278 C82.6645718,225.914817 103.99421,225.53214 130.861,210.904418 C157.727789,196.276696 175.378423,164.255827 187.884504,137.604422 C200.390584,110.953017 196.731984,70.0995574 194.74649,60.981545 C192.760995,51.8635326 180.794559,30.2898275 169.388169,20.9730766 C157.98178,11.6563256 130.903918,4.47777605 107.856144,4.47777605 C84.8083707,4.47777605 77.7923014,10.6915274 63.4006351,19.6474481 C49.0089687,28.6033688 41.6565897,38.1590289 22.2040943,68.1889892 Z M18.8604346,66.0158602 C39.7073128,33.8333092 46.9181966,25.2042363 61.2972444,16.2561681 C62.287095,15.640185 63.2691653,15.0207055 64.5400955,14.212782 C64.263218,14.3887916 66.9253432,12.6942396 67.6159975,12.2571041 C70.0581511,10.7113928 71.8155782,9.63704549 73.5680815,8.63745282 C83.6757408,2.87224707 92.8624668,0.48531374 107.856144,0.48531374 C131.845545,0.48531374 159.73456,7.93640504 171.907084,17.8789357 C182.91912,26.8735783 196.153699,48.70933 198.640766,60.1307242 C200.053369,66.6178383 201.084603,79.9763041 200.734187,92.8269695 C200.247021,110.692575 197.357844,126.801631 191.491742,139.302739 C183.628525,156.059852 176.353448,169.304153 168.007702,181.075046 C157.394384,196.044135 145.820105,207.304006 132.764483,214.412188 C105.494792,229.259271 83.0253681,230.34035 53.7324532,218.9094 C40.5443657,213.763024 28.4403868,204.153049 18.3186203,191.918836 C10.2217947,182.132176 3.95815112,171.150182 2.02412844,164.019153 C0.0541710092,156.755627 -0.279282604,139.226084 1.61131585,122.090883 C4.05790999,99.9164851 9.71523066,80.133849 18.8604346,66.0158602 Z" id="Outline" fill="#011627" fill-rule="nonzero"></path>
            <path d="M22.2040943,68.3555561 C2.75159901,98.4640268 2.75159901,151.85673 5.8705556,163.386852 C8.98951219,174.916974 27.6941052,204.986583 55.1793385,215.740163 C82.6645718,226.493743 103.99421,226.110066 130.861,211.444101 C157.727789,196.778136 175.378423,164.673551 187.884504,137.952469 C200.390584,111.231386 196.731984,70.2711193 194.74649,61.1292687 C192.760995,51.9874181 180.794559,30.3573107 169.388169,21.016202 C157.98178,11.6750933 130.903918,4.47777605 107.856144,4.47777605 C84.8083707,4.47777605 77.7923014,10.7077727 63.4006351,19.6871078 C49.0089687,28.6664428 41.6565897,38.2470853 22.2040943,68.3555561 Z" id="Circle" fill="#EF5350"></path>
            <path d="M101.652706,49.6520375 C102.951509,47.9683977 111.331111,43.2261574 113.370077,43.2261574 C115.409043,43.2261574 116.143577,45.1501158 114.756827,59.1273565 C113.370077,73.1045972 105.689831,140.045664 103.671269,161.551009 C101.652706,183.056353 101.709696,185.650526 98.2966443,188.845847 C94.8835925,192.041169 89.5589222,196.982148 88.1137752,196.982148 C86.6686282,196.982148 88.3959096,189.678153 91.7350857,156.860215 C95.0742619,124.042277 99.1736974,84.7956397 100.353903,70.1030811 C101.534109,55.4105226 100.353903,51.3356773 101.652706,49.6520375 Z" id="Slash" fill="#011627"></path>
            <path d="M71.0478129,70.5801946 C69.4000357,70.5801946 55.8456259,89.8176644 38.4982328,109.696454 C21.1508396,129.575243 16.9357102,137.571299 16.9357102,138.920184 C16.9357102,140.269069 15.5165955,147.273546 18.4652865,149.256703 C21.4139774,151.23986 41.3315371,164.520107 57.0782927,170.915683 C72.8250482,177.311259 81.8139473,181.318448 83.1071217,181.318448 C84.4002961,181.318448 83.7480803,175.13641 82.0644206,167.43071 C80.380761,159.72501 80.4293078,153.617676 78.6963978,153.617676 C76.9634878,153.617676 56.9607953,146.905668 49.0286689,144.088796 C41.0965424,141.271923 37.5413681,139.221815 37.5413681,137.967366 C37.5413681,136.712917 49.7512424,123.049289 59.5562907,112.808615 C69.3613389,102.567941 72.6962936,98.5656848 74.3701032,98.5656848 C76.0439127,98.5656848 72.4620025,86.9930398 72.4620025,81.0069216 C72.4620025,75.0208034 72.6955901,70.5801946 71.0478129,70.5801946 Z" id="&lt;" fill="#011627"></path>
            <path d="M120.833621,61.832879 C120.833621,64.308654 123.265886,85.7400002 123.265886,87.1812071 C123.265886,88.6224141 139.938549,85.3079905 154.601796,82.3163409 C169.265043,79.3246913 167.133909,79.8412706 160.867853,87.1812071 C154.601796,94.5211437 126.404543,135.458468 125.474414,136.758021 C124.544286,138.057574 125.636237,141.342398 126.591695,151.190528 C127.547152,161.038658 127.941859,165.122665 129.298355,165.122665 C130.654851,165.122665 133.754987,156.882062 143.247559,142.990096 C152.740132,129.09813 180.540567,81.4805113 181.695137,78.6037354 C182.849707,75.7269595 180.857881,66.0881393 178.611359,63.9605091 C177.200879,62.6246748 154.78575,62.2923064 138.29755,61.9936539 C128.524417,61.8166322 120.833621,60.9115213 120.833621,61.832879 Z" id="&gt;" fill="#011627"></path>
        </g>
        <g id="Eyes" transform="translate(450.000000, 386.000000)">
            <path d="M3.68176746,70.6162628 C3.68176746,67.5132073 4.58616863,37.583882 4.58616863,29.7511936 C4.58616863,21.9185052 3.81396068,8.15488819 6.02782299,5.58118336 C8.24168529,3.00747854 10.8740763,1.56752471 16.139856,5.58118336 C21.4056358,9.59484202 29.9343432,12.3716814 52.2625263,25.7695562 C74.5907094,39.167431 87.8604145,45.2934889 105.613715,55.1790371 C123.367015,65.0645853 126.437389,69.3189034 145.986023,78.8997498 C165.534656,88.4805961 177.463972,94.709222 179.798554,98.01241 C182.133136,101.315598 178.505056,98.0074067 178.505056,113.470149 C178.505056,128.932892 176.92173,148.543382 176.92173,163.279643 C176.92173,178.015905 177.275908,187.44415 171.657946,188.293212 C166.039984,189.142275 163.237986,185.618941 132.713823,163.279643 C102.189661,140.940346 71.2424797,115.91627 50.6891776,102.780068 C30.1358755,89.6438667 3.68176746,73.7193182 3.68176746,70.6162628 Z" id="Path-6" fill="#011627" transform="translate(92.131791, 95.744082) rotate(-2.000000) translate(-92.131791, -95.744082) "></path>
            <path d="M104.347606,111.04071 C116.123316,111.04071 123.405369,100.463704 123.405369,91.5618075 C123.405369,82.6599109 120.562966,75.5001683 113.305059,71.739177 C106.047152,67.9781857 99.5073294,70.1271091 93.6489249,75.0223517 C87.7905205,79.9175944 85.814606,86.2853124 85.814606,94.7699326 C85.814606,103.254553 92.5718955,111.04071 104.347606,111.04071 Z" id="Path-4" fill="#FFFFFF"></path>
            <path d="M56.7506109,86.6113579 C66.2311095,86.6113579 73.3530816,77.4898158 74.4550243,70.6457823 C75.556967,63.8017488 74.0055674,55.7033844 68.0508864,51.1553718 C62.0962054,46.6073592 56.1594827,44.4023986 48.8599227,51.1553718 C41.5603628,57.908345 40.2673635,65.5919346 40.9138631,72.6556136 C41.5603628,79.7192926 47.2701122,86.6113579 56.7506109,86.6113579 Z" id="Path-5" fill="#FFFFFF"></path>
            <path d="M97.7958979,88.9191286 C96.3595586,88.9191286 94.7005273,90.1016333 94.7005273,91.2388951 C94.7005273,92.376157 93.2129071,98.0405591 98.7759324,100.594636 C104.338958,103.148713 109.898184,102.037644 112.052456,97.3123877 C114.206728,92.5871314 112.455581,84.9963373 110.704434,83.3914075 C108.953287,81.7864777 106.766727,81.3997705 105.602936,82.0207879 C104.439145,82.6418052 104.356193,84.0602661 104.356193,87.5220568 C104.356193,90.9838476 103.615328,91.8356514 101.19563,91.8356514 C98.7759324,91.8356514 99.2322373,88.9191286 97.7958979,88.9191286 Z" id="Path-2" fill="#011627"></path>
            <path d="M51.934912,65.2144714 C50.6174381,65.2144714 48.8252659,67.0182839 49.721352,71.9968536 C50.6174381,76.9754233 55.8426471,78.3962991 60.2007771,76.9561585 C64.5589071,75.5160179 65.9967216,70.2531944 65.9967216,66.6042877 C65.9967216,62.955381 63.3210069,59.0328358 61.3406802,59.0328358 C59.3603534,59.0328358 57.7383513,59.639873 57.7383513,60.4568569 C57.7383513,61.2738409 58.7335635,68.2610289 55.6431249,68.2610289 C52.5526862,68.2610289 53.252386,65.2144714 51.934912,65.2144714 Z" id="Path-3" fill="#011627"></path>
        </g>
        <g id="Shame" transform="translate(428.000000, 315.000000)" fill="#011627">
            <path d="M48.3030166,23.0693121 C49.6131834,23.0693121 54.0074434,17.6706474 54.0074434,16.6709632 C54.0074434,15.671279 43.357694,0.447833886 31.0306091,0.447833886 C18.7035242,0.447833886 7.35225357,2.6038462 9.8326545,16.6709632 C12.3130554,30.7380801 30.2386888,34.5135685 36.1041002,39.7864247 C41.9695116,45.0592809 43.8121659,56.9691521 33.0497273,52.2531835 C22.2872887,47.537215 11.6771663,37.1968664 9.8326545,34.7269496 C7.98814267,32.2570327 4.33255429,34.7405172 2.64840787,37.2634709 C0.964261463,39.7864247 -2.78358347,41.8696654 3.52453551,48.1329552 C9.8326545,54.396245 24.6197077,68.7273131 36.9461734,67.7399631 C49.2726391,66.752613 55.4624963,59.0024395 55.4624963,48.1329552 C55.4624963,37.2634709 36.1257712,25.5083935 26.6041522,21.0896783 C17.0825333,16.6709632 18.9394285,10.9361924 26.6041522,11.9734958 C34.2688759,13.0107992 40.219733,16.8985285 43.2877276,18.9941034 C46.3557223,21.0896783 46.9928497,23.0693121 48.3030166,23.0693121 Z" id="Path-7"></path>
            <path d="M56.9504472,75.4120753 C56.9504472,72.3593547 58.6940565,38.8061948 58.6940565,34.0754337 C58.6940565,29.3446727 57.4341788,18.4651333 58.6940565,17.3409163 C59.9539342,16.2166994 67.6130181,20.8607861 69.0066258,21.7007622 C70.4002336,22.5407384 69.9286592,40.2439688 69.9286592,43.9875348 C69.9286592,47.7311008 72.344118,46.7043924 78.3555711,49.0643558 C84.3670241,51.4243192 87.2534174,53.4152793 87.2534174,52.4197992 C87.2534174,51.4243192 87.2534174,34.1264186 87.2534174,32.6580536 C87.2534174,31.1896886 88.6393469,29.3255534 94.1734669,32.6580536 C99.7075869,35.9905539 100.242507,35.5552703 99.975047,43.9875348 C99.7075869,52.4197992 99.0165417,85.9315339 99.0165417,88.6974645 C99.0165417,91.4633951 111.403526,71.256169 117.732988,61.2988188 C124.06245,51.3414687 127.865758,45.0830727 129.430847,45.0830727 C130.995936,45.0830727 139.307674,48.522004 140.545797,50.4709016 C141.783919,52.4197992 155.399428,107.88563 156.768722,110.018073 C158.138015,112.150517 155.613141,62.8239045 155.613141,61.2988188 C155.613141,59.7737331 153.808105,52.1833568 160.653931,55.5343391 C167.499757,58.8853213 169.572893,57.6572227 170.899955,61.2988188 C172.227018,64.940415 174.94193,75.8785871 175.766705,77.0302084 C176.59148,78.1818298 181.803112,63.6258497 183.723962,63.6258497 C185.644812,63.6258497 194.522822,68.8318372 196.154457,70.1204804 C197.786091,71.4091237 197.419453,74.6696078 197.419453,99.1219638 C197.419453,123.57432 199.280156,145.221232 198.349805,146.159991 C197.419453,147.098751 186.358892,139.488618 185.041427,138.619963 C183.723962,137.751307 185.041427,119.050685 185.041427,107.626244 C185.041427,96.2018039 186.358892,84.1521611 185.041427,84.1521611 C183.723962,84.1521611 177.423934,98.2494847 175.766705,98.2494847 C174.109476,98.2494847 169.945289,81.3205874 168.685412,79.1753979 C167.425534,77.0302084 168.685412,125.639208 168.685412,128.260469 C168.685412,130.88173 159.801642,127.386715 158.944234,126.06302 C158.086826,124.739325 159.107754,126.232432 156.768722,125.195368 C154.429689,124.158305 145.56208,120.738845 144.317264,119.504069 C143.072448,118.269292 139.471131,92.1083731 138.259343,91.5579632 C137.047554,91.0075532 122.532309,81.195315 120.52106,81.7032417 C118.509811,82.2111685 108.537666,101.38022 107.081409,102.111726 C105.625152,102.843232 97.525678,98.4769177 96.6795711,97.7681335 C96.1154998,97.2956107 95.9420791,96.7335573 96.159309,96.0819732 C95.9518939,96.7290355 95.2899466,96.8908011 94.1734669,96.56727 C92.4987473,96.0819732 86.8354489,92.6350438 86.0182833,91.5579632 C85.2011176,90.4808825 87.1711678,63.6258497 86.5947255,63.6258497 C86.0182833,63.6258497 71.3361728,54.796637 70.632416,55.5343391 C69.9286592,56.2720412 70.8506926,80.4998207 69.9286592,81.1015312 C69.0066258,81.7032417 56.9504472,78.4647959 56.9504472,75.4120753 Z M126.032463,72.9186799 C125.635529,73.8693808 135.120157,77.4587855 136.005017,77.4587855 C136.889878,77.4587855 133.580472,60.4032755 133.089295,60.4032755 C132.598119,60.4032755 126.429396,71.9679789 126.032463,72.9186799 Z" id="Combined-Shape"></path>
            <path d="M202.253539,74.469113 C202.253539,77.0824965 203.046952,111.305411 203.046952,118.489429 C203.046952,125.673447 201.291894,145.70592 201.772717,146.538532 C202.253539,147.371144 227.220129,161.714658 233.908374,164.762367 C240.596619,167.810076 244.835617,170.746696 244.835617,169.278386 C244.835617,167.810076 247.402739,156.727532 245.822627,156.251223 C244.242515,155.774914 216.457388,144.166275 215.17793,143.532806 C213.898472,142.899338 215.73261,136.977427 215.17793,132.169381 C214.623249,127.361335 214.922411,124.77173 216.001185,124.77173 C217.079958,124.77173 234.722303,132.746005 235.474311,132.746005 C236.226319,132.746005 236.561291,122.072521 236.017801,121.255885 C235.474311,120.43925 215.659498,114.086729 215.17793,112.266203 C214.696361,110.445677 214.114823,92.1218981 214.646377,91.1767108 C215.17793,90.2315234 243.926194,105.555893 245.822627,105.555893 C247.71906,105.555893 248.301344,93.414843 247.638115,92.2957769 C246.974885,91.1767108 213.818646,77.056489 211.372382,75.762801 C208.926118,74.469113 202.253539,71.8557295 202.253539,74.469113 Z" id="Path-10"></path>
        </g>
    </g>
</svg>